<?xml version="1.0"?><svg width="2271.4375000000005" height="1665.7122" xmlns="http://www.w3.org/2000/svg" xmlns:xlink="http://www.w3.org/1999/xlink">
 <defs>
  <clipPath id="clipPath4234" clipPathUnits="userSpaceOnUse">
   <path fill="#9cf000" stroke-width="3" stroke-linecap="round" stroke-linejoin="round" stroke-miterlimit="4" stroke-dashoffset="0" id="path4236" d="m-706.141907,124.838226c-11.65564,0 -21.0625,5.752136 -21.0625,12.875l0,830.031219c73.681519,-9.907227 153.852417,-15.0625 237.156128,-15.0625c343.817154,0 484.305738,44.117554 822.843781,235.718811c342.857147,194.045776 775.268097,461.424072 -891.406281,464.28125c-60.104736,0.103271 -116.483887,-9.398071 -168.593628,-25.937378l0,150.96875c0,7.122803 9.40686,12.843994 21.0625,12.843628l2229.343689,0c11.655518,0 21.03125,-5.720825 21.03125,-12.843628l0,-640.000122l0,-67.40625l0,-932.593781c0,-7.122864 -9.375732,-12.875 -21.03125,-12.875l-2229.343689,0z"/>
  </clipPath>
  <clipPath id="clipPath4253" clipPathUnits="userSpaceOnUse">
   <path fill="url(#linearGradient4257)" stroke-width="3" stroke-linecap="round" stroke-linejoin="round" stroke-miterlimit="4" stroke-dashoffset="0" id="path4255" d="m268.143707,101.981087c-11.655579,0 -21.062485,5.752136 -21.062485,12.874992l0,830.031189l0,169.968811l0,640c0,7.122925 9.406937,12.843994 21.062485,12.84375l2229.343842,0c11.655273,0 21.03125,-5.720947 21.03125,-12.84375l0,-640l0,-67.40625l0,-932.59375c0,-7.122856 -9.375977,-12.874992 -21.03125,-12.874992l-2229.343842,0z"/>
  </clipPath>
  <filter id="filter4962" height="1.528696" y="-0.264348" width="1.496326" x="-0.248163">
   <feGaussianBlur id="feGaussianBlur4964" stdDeviation="57.904762"/>
  </filter>
  <filter id="filter5183" height="1.595822" y="-0.297911" width="1.260664" x="-0.130332">
   <feGaussianBlur id="feGaussianBlur5185" stdDeviation="24.825904"/>
  </filter>
  <clipPath id="clipPath5381" clipPathUnits="userSpaceOnUse">
   <path opacity="0.893333" fill="#fdfdfd" stroke-width="5" stroke-linecap="round" stroke-linejoin="round" stroke-miterlimit="4" stroke-dashoffset="0" id="path5383" d="m854.735229,191.182404c-48.512512,0 -90.277039,11.929932 -108.884583,29.029007c-4.26886,-0.29483 -8.609497,-0.457611 -13.019836,-0.457581c-57.891602,0 -104.884521,26.515869 -104.884521,59.185287c0,28.591492 35.995605,52.464539 83.786011,57.979858c14.848328,30.919434 81.280579,54.263428 160.924805,54.263428c90.548401,0 164.042603,-30.168213 164.042603,-67.34375l-0.117676,-1.082581c29.33374,-9.232056 48.520508,-24.501526 48.520508,-41.774567l-0.421509,-4.386139c-5.100586,-26.509384 -53.967407,-46.620667 -113.325806,-46.640671c-11.480103,-22.433395 -59.405518,-38.772324 -116.619995,-38.772293z"/>
  </clipPath>
  <filter id="filter5445" height="1.437617" y="-0.218809" width="1.191452" x="-0.095726">
   <feGaussianBlur id="feGaussianBlur5447" stdDeviation="18.234042"/>
  </filter>
  <clipPath id="clipPath5495" clipPathUnits="userSpaceOnUse">
   <path opacity="0.893333" fill="#fdfdfd" stroke-width="5" stroke-linecap="round" stroke-linejoin="round" stroke-miterlimit="4" stroke-dashoffset="0" d="m1889.020874,99.753845c-48.512451,0 -90.276978,11.929924 -108.884521,29.028992c-4.268921,-0.294815 -8.609497,-0.457611 -13.019897,-0.457565c-57.891602,0 -104.884399,26.515854 -104.884399,59.185242c0,28.591507 35.995483,52.464569 83.786011,57.979889c14.848267,30.919449 81.280518,54.263412 160.924805,54.263443c90.54834,0 164.042725,-30.168243 164.042725,-67.343796l-0.11792,-1.082565c29.333984,-9.23204 48.520996,-24.501541 48.520996,-41.774582l-0.421875,-4.386139c-5.100586,-26.509354 -53.967529,-46.620636 -113.325928,-46.640625c-11.480103,-22.433411 -59.405396,-38.772339 -116.619995,-38.772293z" id="path5497"/>
  </clipPath>
  <filter id="filter5575" height="1.438104" y="-0.219052" width="1.191665" x="-0.095832">
   <feGaussianBlur id="feGaussianBlur5577" stdDeviation="18.254341"/>
  </filter>
  <clipPath id="clipPath5671" clipPathUnits="userSpaceOnUse">
   <rect transform="translate(731.438, 201.181) translate(4.34783) translate(73.913, 30.4348) translate(-21.7391, 4.34783)" fill="url(#linearGradient5675)" stroke-width="3" stroke-linecap="round" stroke-linejoin="round" stroke-miterlimit="4" stroke-dashoffset="0" ry="21.597332" rx="35.341087" y="-243.84096" x="-791.15668" height="1722.9872" width="3815.5286" id="rect5673"/>
  </clipPath>
  <clipPath id="clipPath5677" clipPathUnits="userSpaceOnUse">
   <rect transform="translate(731.438, 201.181) translate(4.34783) translate(73.913, 30.4348) translate(-21.7391, 4.34783)" fill="url(#linearGradient5681)" stroke-width="3" stroke-linecap="round" stroke-linejoin="round" stroke-miterlimit="4" stroke-dashoffset="0" id="rect5679" width="3599.5803" height="1625.4709" x="-782.60162" y="-231.60446" rx="33.340881" ry="20.374983"/>
  </clipPath>
  <linearGradient id="linearGradient4238">
   <stop stop-color="#55a800" id="stop4240" offset="0"/>
   <stop stop-color="#74e400" id="stop4242" offset="1"/>
  </linearGradient>
  <linearGradient id="linearGradient4103">
   <stop stop-color="#00acf4" id="stop4105" offset="0"/>
   <stop stop-color="#a6e5ff" id="stop4107" offset="1"/>
  </linearGradient>
  <linearGradient y2="1.000095" x2="0.474214" y1="-0.189419" x1="0.474214" id="linearGradient4109" xlink:href="#linearGradient4103"/>
  <linearGradient y2="978.1759" x2="345.71426" y1="-241.92688" x1="345.71426" gradientTransform="matrix(1, 0, 0, 1, 978.519, 149.625)" gradientUnits="userSpaceOnUse" id="linearGradient4257" xlink:href="#linearGradient4103"/>
  <linearGradient y2="1.425902" x2="0.510673" y1="-0.070132" x1="0.5" id="linearGradient4263" xlink:href="#linearGradient4238"/>
  <linearGradient y2="978.1759" x2="345.71426" y1="-241.92688" x1="345.71426" gradientTransform="matrix(1.67979, 0, 0, 1.67979, 437.492, -163.819)" gradientUnits="userSpaceOnUse" id="linearGradient5675" xlink:href="#linearGradient4103"/>
  <linearGradient y2="978.1759" x2="345.71426" y1="-241.92688" x1="345.71426" gradientTransform="matrix(1.58472, 0, 0, 1.58472, 376.509, -156.112)" gradientUnits="userSpaceOnUse" id="linearGradient5681" xlink:href="#linearGradient4103"/>
 </defs>
 <metadata id="metadata7">image/svg+xmlSummer LandscapeCarlos AsmatsummergreenlandscapetreecloudsA simple summer landscape featuring green grass, a blue sky and white clouds.</metadata>
 <g>
  <title>Layer 1</title>
  <g display="inline" id="layer2">
   <rect fill="url(#linearGradient4109)" stroke-width="3" stroke-linecap="round" stroke-linejoin="round" stroke-miterlimit="4" stroke-dashoffset="0" ry="12.857142" rx="21.03896" y="4.347834" x="0.009397" height="1025.7142" width="2271.4285" id="rect2160"/>
   <path fill="url(#linearGradient4263)" stroke-width="3" stroke-linecap="round" stroke-linejoin="round" stroke-miterlimit="4" stroke-dashoffset="0" id="path4202" d="m1207.09021,804.96228c-215.17157,0 -379.221558,34.240723 -506.1875,86.40625c-139.692749,-48.926025 -270.224304,-63.53125 -468.093796,-63.53125c-83.302917,0 -163.475655,5.155029 -237.156253,15.0625l0,809.968872c0,7.122925 9.406921,12.84375 21.0625,12.84375l2229.343922,0c11.655518,0 21.03125,-5.720947 21.03125,-12.84375l0,-707.406372c-167.743164,0.928467 -334.178833,3.173828 -499.125122,6.71875c-168.047607,-63.883789 -304.033447,-147.21875 -560.875,-147.21875z"/>
  </g>
  <g display="inline" id="layer1">
   <path opacity="0.031111" fill="#000000" stroke-width="5" stroke-linecap="round" stroke-linejoin="round" stroke-miterlimit="4" stroke-dashoffset="0" filter="url(#filter5183)" id="path5189" d="m870.457764,1082.611328c67.916992,0 126.386902,11.929932 152.437256,29.029053c5.97644,-0.2948 12.053223,-0.457642 18.227661,-0.457642c81.047607,0 146.83728,26.515869 146.83728,59.185303c0,28.591553 -50.393555,52.4646 -117.299561,57.97998c-20.787476,30.919434 -113.792053,54.263306 -225.293152,54.263428c-126.766846,0 -229.65802,-30.168335 -229.65802,-67.343872l0.164795,-1.08252c-41.066895,-9.232056 -67.928345,-24.501587 -67.928345,-41.774658l0.590271,-4.386108c7.140747,-26.509277 75.553772,-46.620605 158.654907,-46.640625c16.072021,-22.43335 83.167175,-38.772339 163.266907,-38.772339z"/>
   <path opacity="0.288889" fill="#f57900" stroke-width="8.398963" stroke-linecap="round" stroke-linejoin="round" stroke-miterlimit="4" stroke-dashoffset="0" filter="url(#filter4962)" clip-path="url(#clipPath5677)" id="path4649" d="m323.203339,163.490829a176.687286,165.869705 0 1 1 -0.653259,-14.250687"/>
   <path opacity="0.698" fill="#1e9e00" stroke-width="3" stroke-linecap="round" stroke-linejoin="round" stroke-miterlimit="4" stroke-dashoffset="0" d="m234.156616,1337.589966c-4.183411,1.426636 -5.229797,4.703003 -8.74231,9.602417c-4.570862,8.407837 -13.829285,33.589233 -12.787598,37.706787c1.380615,7.417358 13.011841,-34.612305 21.529907,-47.309204zm-78.536438,18.334839c9.92865,30.301758 10.86322,32.571777 18.606567,32.132202c-1.64447,-5.591309 -6.365417,-10.145142 -9.678284,-15.45813c-3.531128,-5.663696 -5.450562,-16.255127 -8.928284,-16.674072zm34.898926,1.104858c-11.30011,19.798462 -12.507019,26.928955 -10.603638,29.158569c3.480225,2.152222 2.72052,-3.465332 10.603638,-29.158569zm21.140747,4.245605c-2.781921,-0.759644 -4.808533,6.097778 -5.914307,11.706665c-2.823303,14.321167 -2.855286,12.254395 -0.952148,13.46814c2.62384,1.67334 2.607361,-12.939453 6.866455,-25.174805zm18.712036,-1.315063c-2.911804,0.139771 -4.426392,5.941162 -6.468201,11.296021c-2.050659,10.210938 -8.019348,16.553711 -3.809814,16.94165c4.185181,0.38562 7.080688,-16.118286 10.278015,-28.237671zm-31.208374,3.927856c-9.182617,16.418457 -11.146606,21.454346 -7.458313,22.132324c2.37793,0.437012 2.565613,-3.574951 5.280457,-10.320435c1.748657,-4.345093 3.928894,-8.152466 2.177856,-11.81189z" id="path7786"/>
   <path fill="#ffff00" stroke="#fcaf3e" stroke-width="8.398963" stroke-linecap="round" stroke-linejoin="round" stroke-miterlimit="4" stroke-dashoffset="0" clip-path="url(#clipPath5671)" d="m395.812164,202.621338a166.687363,156.48201 0 1 1 -333.374737,0a166.687363,156.48201 0 1 1 333.374737,0z" id="path4639"/>
   <path fill="#fdfdfd" stroke-width="5" stroke-linecap="round" stroke-linejoin="round" stroke-miterlimit="4" stroke-dashoffset="0" filter="url(#filter5575)" clip-path="url(#clipPath5495)" id="path4984" d="m1889.020874,99.753845c-48.512451,0 -90.276978,11.929924 -108.884521,29.028992c-4.268921,-0.294815 -8.609497,-0.457611 -13.019897,-0.457565c-57.891602,0 -104.884399,26.515854 -104.884399,59.185242c0,28.591507 35.995483,52.464569 83.786011,57.979889c14.848267,30.919449 81.280518,54.263412 160.924805,54.263443c90.54834,0 164.042725,-30.168243 164.042725,-67.343796l-0.11792,-1.082565c29.333984,-9.23204 48.520996,-24.501541 48.520996,-41.774582l-0.421875,-4.386139c-5.100586,-26.509354 -53.967529,-46.620636 -113.325928,-46.640625c-11.480103,-22.433411 -59.405396,-38.772339 -116.619995,-38.772293z"/>
   <path fill="#fdfdfd" stroke-width="5" stroke-linecap="round" stroke-linejoin="round" stroke-miterlimit="4" stroke-dashoffset="0" filter="url(#filter5445)" clip-path="url(#clipPath5381)" d="m867.801392,202.611069c73.374634,0 136.543091,14.997589 164.68689,36.49353c6.456543,-0.370651 13.021729,-0.575287 19.692383,-0.575256c87.560425,0 158.636719,33.334183 158.636719,74.40419c0,35.943512 -54.442993,65.955292 -126.725464,72.888855c-22.458008,38.870056 -122.936157,68.216644 -243.397217,68.216705c-136.953552,0 -248.112793,-37.92572 -248.112793,-84.660553l0.17804,-1.360962c-44.366943,-11.605957 -73.386902,-30.801849 -73.386902,-52.516479l0.637634,-5.514008c7.7146,-33.325958 81.625122,-58.608673 171.404114,-58.63382c17.363525,-28.20192 89.85022,-48.742249 176.386597,-48.742203z" id="path5187"/>
   <g opacity="0.697778" fill="#009800" display="inline" id="g5828" transform="matrix(-0.210623, 0, 0, 0.556237, -341.333, 359.596)">
    <path fill="#009800" stroke-width="5" stroke-linecap="round" stroke-linejoin="round" stroke-miterlimit="4" stroke-dashoffset="0" id="path5830" d="m-3686.370117,2154.179932c-12.955811,-57.300537 -65.418457,-104.149414 -110.755127,-139.778442c58.284424,5.963745 98.620361,69.925415 124.037842,117.93396c2.572754,8.976074 -2.445068,22.19751 -13.282715,21.844482z"/>
    <path fill="#009800" stroke-width="5" stroke-linecap="round" stroke-linejoin="round" stroke-miterlimit="4" stroke-dashoffset="0" id="path5832" d="m-3611.789551,2145.50293c16.922363,-30.073242 -35.47998,-114.769409 -26.255859,-150.65979c29.289795,54.484253 47.240967,92.356079 42.014648,140.913208c-3.416748,5.674805 -10.498779,6.567627 -15.758789,9.746582z"/>
    <path fill="#009800" stroke-width="5" stroke-linecap="round" stroke-linejoin="round" stroke-miterlimit="4" stroke-dashoffset="0" id="path5834" d="m-3537.277344,2143.138428c25.249268,-47.250977 55.258545,-94.921631 108.53833,-113.318726c-29.527588,20.459351 -63.095703,41.024048 -76.157715,76.460327c-6.845215,14.830078 -14.696045,32.876465 -32.380615,36.858398z"/>
    <path fill="#009800" stroke-width="5" stroke-linecap="round" stroke-linejoin="round" stroke-miterlimit="4" stroke-dashoffset="0" id="path5836" d="m-3428.504395,2152.096436c20.26416,-9.159668 40.634033,-61.067383 69.030518,-84.929199c-31.307129,78.414063 -42.603516,86.36792 -69.030518,84.929199z"/>
    <path fill="#009800" stroke-width="5" stroke-linecap="round" stroke-linejoin="round" stroke-miterlimit="4" stroke-dashoffset="0" id="path5838" d="m-3571.562988,2134.566895c12.679932,-15.090332 17.682129,-39.510498 39.270264,-44.824463c-11.710938,15.824219 -17.50708,39.779785 -39.270264,44.824463z"/>
    <path fill="#009800" stroke-width="5" stroke-linecap="round" stroke-linejoin="round" stroke-miterlimit="4" stroke-dashoffset="0" id="path5840" d="m-3650.360107,2109.262207c-10.250244,-21.322998 -21.087646,-42.660889 -36.165527,-61.046875c42.01709,18.971436 55.649414,50.301758 36.165527,61.046875z"/>
    <path fill="#009800" stroke-width="5" stroke-linecap="round" stroke-linejoin="round" stroke-miterlimit="4" stroke-dashoffset="0" id="path5842" d="m-3456.971924,2105.887207c18.253662,-21.315674 39.844482,-40.695557 65.959961,-51.724609c-22.991943,11.943115 -42.077393,44.868164 -65.959961,51.724609z"/>
   </g>
   <g opacity="0.697778" fill="#008c00" display="inline" transform="matrix(-0.284483, 0, 0, 0.391411, 808.187, 580.556)" id="g5844">
    <path fill="#008c00" stroke-width="5" stroke-linecap="round" stroke-linejoin="round" stroke-miterlimit="4" stroke-dashoffset="0" d="m-2715.074707,2332.819336c-12.955811,-57.300293 -65.418457,-104.14917 -110.755127,-139.778076c58.284424,5.963623 98.620361,69.925293 124.037842,117.933594c2.572754,8.976318 -2.445068,22.197754 -13.282715,21.844482z" id="path5846"/>
    <path fill="#008c00" stroke-width="5" stroke-linecap="round" stroke-linejoin="round" stroke-miterlimit="4" stroke-dashoffset="0" d="m-2640.494141,2324.142578c16.922363,-30.073486 -35.47998,-114.769287 -26.255859,-150.659668c29.290039,54.484131 47.240967,92.355957 42.014648,140.913086c-3.416748,5.674561 -10.499023,6.567627 -15.758789,9.746582z" id="path5848"/>
    <path fill="#008c00" stroke-width="5" stroke-linecap="round" stroke-linejoin="round" stroke-miterlimit="4" stroke-dashoffset="0" d="m-2565.981934,2321.777832c25.249268,-47.250732 55.258545,-94.921387 108.53833,-113.318359c-29.527588,20.459229 -63.095703,41.023926 -76.157715,76.460205c-6.845215,14.830078 -14.696045,32.876465 -32.380615,36.858154z" id="path5850"/>
    <path fill="#008c00" stroke-width="5" stroke-linecap="round" stroke-linejoin="round" stroke-miterlimit="4" stroke-dashoffset="0" d="m-2457.208984,2330.736084c20.26416,-9.159912 40.634033,-61.067383 69.030518,-84.929199c-31.307129,78.414063 -42.603516,86.36792 -69.030518,84.929199z" id="path5852"/>
    <path fill="#008c00" stroke-width="5" stroke-linecap="round" stroke-linejoin="round" stroke-miterlimit="4" stroke-dashoffset="0" d="m-2600.267578,2313.206543c12.679932,-15.090576 17.682129,-39.510498 39.270264,-44.824463c-11.711182,15.824219 -17.50708,39.779785 -39.270264,44.824463z" id="path5854"/>
    <path fill="#008c00" stroke-width="5" stroke-linecap="round" stroke-linejoin="round" stroke-miterlimit="4" stroke-dashoffset="0" d="m-2679.064697,2287.901855c-10.250244,-21.322998 -21.087646,-42.660889 -36.165527,-61.046875c42.01709,18.971436 55.649658,50.301758 36.165527,61.046875z" id="path5856"/>
    <path fill="#008c00" stroke-width="5" stroke-linecap="round" stroke-linejoin="round" stroke-miterlimit="4" stroke-dashoffset="0" d="m-2485.67627,2284.526855c18.253418,-21.315674 39.844238,-40.695557 65.959717,-51.724609c-22.991943,11.943115 -42.077393,44.868164 -65.959717,51.724609z" id="path5858"/>
   </g>
   <g opacity="0.697778" fill="#008c00" display="inline" id="g5860" transform="matrix(0.326029, 0, 0, 0.480164, 1333.72, 586.943)">
    <path fill="#008c00" stroke-width="5" stroke-linecap="round" stroke-linejoin="round" stroke-miterlimit="4" stroke-dashoffset="0" id="path5862" d="m2471.561035,2221.388672c-12.955811,-57.300293 -65.418457,-104.149414 -110.755127,-139.77832c58.284424,5.963867 98.620361,69.925537 124.037842,117.933838c2.572754,8.976318 -2.445068,22.197754 -13.282715,21.844482z"/>
    <path fill="#008c00" stroke-width="5" stroke-linecap="round" stroke-linejoin="round" stroke-miterlimit="4" stroke-dashoffset="0" id="path5864" d="m2546.141602,2212.711914c16.922363,-30.073486 -35.47998,-114.769531 -26.255859,-150.659912c29.290039,54.484131 47.240967,92.356201 42.014648,140.91333c-3.416748,5.674561 -10.499023,6.567627 -15.758789,9.746582z"/>
    <path fill="#008c00" stroke-width="5" stroke-linecap="round" stroke-linejoin="round" stroke-miterlimit="4" stroke-dashoffset="0" id="path5866" d="m2620.653809,2210.347168c25.249268,-47.250732 55.258545,-94.921387 108.53833,-113.318604c-29.527588,20.459229 -63.095703,41.02417 -76.157715,76.460449c-6.845215,14.830078 -14.696045,32.876465 -32.380615,36.858154z"/>
    <path fill="#008c00" stroke-width="5" stroke-linecap="round" stroke-linejoin="round" stroke-miterlimit="4" stroke-dashoffset="0" id="path5868" d="m2729.426758,2219.30542c20.26416,-9.159912 40.634033,-61.067383 69.030518,-84.929199c-31.307129,78.414063 -42.603516,86.36792 -69.030518,84.929199z"/>
    <path fill="#008c00" stroke-width="5" stroke-linecap="round" stroke-linejoin="round" stroke-miterlimit="4" stroke-dashoffset="0" id="path5870" d="m2586.368164,2201.775879c12.679932,-15.090576 17.682129,-39.510498 39.270264,-44.824463c-11.711182,15.824219 -17.50708,39.779785 -39.270264,44.824463z"/>
    <path fill="#008c00" stroke-width="5" stroke-linecap="round" stroke-linejoin="round" stroke-miterlimit="4" stroke-dashoffset="0" id="path5872" d="m2507.571045,2176.471191c-10.250244,-21.322998 -21.087646,-42.660889 -36.165527,-61.047119c42.01709,18.97168 55.649658,50.302002 36.165527,61.047119z"/>
    <path fill="#008c00" stroke-width="5" stroke-linecap="round" stroke-linejoin="round" stroke-miterlimit="4" stroke-dashoffset="0" id="path5874" d="m2700.959473,2173.096191c18.253418,-21.315674 39.844238,-40.695557 65.959717,-51.724609c-22.991943,11.943115 -42.077393,44.868164 -65.959717,51.724609z"/>
   </g>
   <g opacity="0.697778" fill="#008c00" display="inline" id="g5876" transform="matrix(-0.192158, 0, 0, 0.213906, 1121.46, 743.183)">
    <path fill="#008c00" stroke-width="5" stroke-linecap="round" stroke-linejoin="round" stroke-miterlimit="4" stroke-dashoffset="0" id="path5878" d="m-4045.862061,2833.083984c-12.956055,-57.300537 -65.418701,-104.14917 -110.755615,-139.778076c58.284668,5.963623 98.62085,69.925293 124.03833,117.933594c2.572754,8.976074 -2.445313,22.197754 -13.282715,21.844482z"/>
    <path fill="#008c00" stroke-width="5" stroke-linecap="round" stroke-linejoin="round" stroke-miterlimit="4" stroke-dashoffset="0" id="path5880" d="m-3971.281494,2824.406982c16.922363,-30.073242 -35.47998,-114.769043 -26.255859,-150.659668c29.289795,54.484375 47.240967,92.356201 42.014648,140.913086c-3.416748,5.674805 -10.498779,6.567871 -15.758789,9.746582z"/>
    <path fill="#008c00" stroke-width="5" stroke-linecap="round" stroke-linejoin="round" stroke-miterlimit="4" stroke-dashoffset="0" id="path5882" d="m-3896.769287,2822.04248c25.249268,-47.250732 55.258545,-94.921387 108.53833,-113.318604c-29.527588,20.459473 -63.095703,41.023926 -76.157715,76.460449c-6.845215,14.830078 -14.696045,32.876465 -32.380615,36.858154z"/>
    <path fill="#008c00" stroke-width="5" stroke-linecap="round" stroke-linejoin="round" stroke-miterlimit="4" stroke-dashoffset="0" id="path5884" d="m-3787.996338,2831.000732c20.26416,-9.159912 40.634033,-61.067383 69.030518,-84.929199c-31.307129,78.414063 -42.603516,86.367676 -69.030518,84.929199z"/>
    <path fill="#008c00" stroke-width="5" stroke-linecap="round" stroke-linejoin="round" stroke-miterlimit="4" stroke-dashoffset="0" id="path5886" d="m-3931.054932,2813.470947c12.679932,-15.090332 17.682129,-39.510254 39.270264,-44.824219c-11.710938,15.824219 -17.50708,39.779785 -39.270264,44.824219z"/>
    <path fill="#008c00" stroke-width="5" stroke-linecap="round" stroke-linejoin="round" stroke-miterlimit="4" stroke-dashoffset="0" id="path5888" d="m-4009.852295,2788.16626c-10.25,-21.322754 -21.087402,-42.660645 -36.165527,-61.046875c42.01709,18.97168 55.649414,50.302002 36.165527,61.046875z"/>
    <path fill="#008c00" stroke-width="5" stroke-linecap="round" stroke-linejoin="round" stroke-miterlimit="4" stroke-dashoffset="0" id="path5890" d="m-3816.463867,2784.79126c18.253662,-21.31543 39.844482,-40.695313 65.959961,-51.724365c-22.991943,11.943115 -42.077393,44.868164 -65.959961,51.724365z"/>
   </g>
   <g opacity="0.697778" fill="#008c00" display="inline" transform="matrix(0.169077, 0, 0, 0.16319, 1217.85, 559.511)" id="g5892">
    <path fill="#008c00" stroke-width="5" stroke-linecap="round" stroke-linejoin="round" stroke-miterlimit="4" stroke-dashoffset="0" d="m4715.083008,3175.909668c-12.956055,-57.300293 -65.418457,-104.14917 -110.755371,-139.778076c58.284668,5.963623 98.620605,69.925293 124.038086,117.933838c2.572754,8.976074 -2.445313,22.19751 -13.282715,21.844238z" id="path5894"/>
    <path fill="#008c00" stroke-width="5" stroke-linecap="round" stroke-linejoin="round" stroke-miterlimit="4" stroke-dashoffset="0" d="m4789.663574,3167.23291c16.922363,-30.073242 -35.47998,-114.769287 -26.255859,-150.659668c29.290039,54.484131 47.241211,92.355957 42.014648,140.913086c-3.416992,5.674805 -10.499023,6.567627 -15.758789,9.746582z" id="path5896"/>
    <path fill="#008c00" stroke-width="5" stroke-linecap="round" stroke-linejoin="round" stroke-miterlimit="4" stroke-dashoffset="0" d="m4864.175781,3164.868164c25.249512,-47.250732 55.258789,-94.921387 108.538574,-113.318359c-29.527832,20.459229 -63.095703,41.023926 -76.158203,76.460205c-6.844727,14.830078 -14.695801,32.876465 -32.380371,36.858154z" id="path5898"/>
    <path fill="#008c00" stroke-width="5" stroke-linecap="round" stroke-linejoin="round" stroke-miterlimit="4" stroke-dashoffset="0" d="m4972.94873,3173.826416c20.26416,-9.159912 40.633789,-61.067383 69.030762,-84.928955c-31.307617,78.413818 -42.604004,86.367676 -69.030762,84.928955z" id="path5900"/>
    <path fill="#008c00" stroke-width="5" stroke-linecap="round" stroke-linejoin="round" stroke-miterlimit="4" stroke-dashoffset="0" d="m4829.890137,3156.296875c12.680176,-15.090332 17.682129,-39.510498 39.27002,-44.824463c-11.710938,15.824463 -17.506836,39.779785 -39.27002,44.824463z" id="path5902"/>
    <path fill="#008c00" stroke-width="5" stroke-linecap="round" stroke-linejoin="round" stroke-miterlimit="4" stroke-dashoffset="0" d="m4751.092773,3130.992188c-10.25,-21.322998 -21.087402,-42.660889 -36.165039,-61.046875c42.01709,18.97168 55.649414,50.301758 36.165039,61.046875z" id="path5904"/>
    <path fill="#008c00" stroke-width="5" stroke-linecap="round" stroke-linejoin="round" stroke-miterlimit="4" stroke-dashoffset="0" d="m4944.481445,3127.617188c18.253418,-21.31543 39.844238,-40.695557 65.959473,-51.724609c-22.991699,11.943359 -42.077148,44.868164 -65.959473,51.724609z" id="path5906"/>
   </g>
   <g fill="#009800" display="inline" transform="matrix(0.38604, 0, 0, 0.492842, -213.2, 373.302)" id="g5811">
    <path fill="#009800" stroke-width="5" stroke-linecap="round" stroke-linejoin="round" stroke-miterlimit="4" stroke-dashoffset="0" d="m2095.855469,2208.74707c-12.956055,-57.300293 -65.418457,-104.14917 -110.755249,-139.778076c58.284546,5.963623 98.620483,69.925293 124.037964,117.933594c2.572754,8.976318 -2.445068,22.197754 -13.282715,21.844482z" id="path5727"/>
    <path fill="#009800" stroke-width="5" stroke-linecap="round" stroke-linejoin="round" stroke-miterlimit="4" stroke-dashoffset="0" d="m2170.436035,2200.070313c16.922363,-30.073486 -35.47998,-114.769287 -26.255859,-150.659668c29.289795,54.484131 47.240967,92.355957 42.014404,140.913086c-3.416504,5.674561 -10.498779,6.567627 -15.758545,9.746582z" id="path5729"/>
    <path fill="#009800" stroke-width="5" stroke-linecap="round" stroke-linejoin="round" stroke-miterlimit="4" stroke-dashoffset="0" d="m2244.948242,2197.705566c25.249268,-47.250732 55.258545,-94.921387 108.53833,-113.318359c-29.527588,20.459229 -63.095703,41.023926 -76.157715,76.460205c-6.845215,14.830078 -14.696045,32.876465 -32.380615,36.858154z" id="path5731"/>
    <path fill="#009800" stroke-width="5" stroke-linecap="round" stroke-linejoin="round" stroke-miterlimit="4" stroke-dashoffset="0" d="m2353.721191,2206.663818c20.26416,-9.159912 40.634033,-61.067383 69.030518,-84.929199c-31.307129,78.414063 -42.603516,86.36792 -69.030518,84.929199z" id="path5733"/>
    <path fill="#009800" stroke-width="5" stroke-linecap="round" stroke-linejoin="round" stroke-miterlimit="4" stroke-dashoffset="0" d="m2210.662598,2189.134277c12.679932,-15.090576 17.682129,-39.510498 39.270264,-44.824463c-11.711182,15.824219 -17.50708,39.779785 -39.270264,44.824463z" id="path5735"/>
    <path fill="#009800" stroke-width="5" stroke-linecap="round" stroke-linejoin="round" stroke-miterlimit="4" stroke-dashoffset="0" d="m2131.865234,2163.82959c-10.25,-21.322998 -21.087402,-42.660889 -36.165283,-61.046875c42.01709,18.971436 55.649414,50.301758 36.165283,61.046875z" id="path5737"/>
    <path fill="#009800" stroke-width="5" stroke-linecap="round" stroke-linejoin="round" stroke-miterlimit="4" stroke-dashoffset="0" d="m2325.253906,2160.45459c18.253418,-21.315674 39.844238,-40.695557 65.959717,-51.724609c-22.991943,11.943115 -42.077393,44.868164 -65.959717,51.724609z" id="path5753"/>
   </g>
   <path opacity="0.698" fill="#1e9e00" stroke-width="3" stroke-linecap="round" stroke-linejoin="round" stroke-miterlimit="4" stroke-dashoffset="0" id="path7788" d="m2242.595703,996.158264c1.522949,0.316284 1.903809,1.04248 3.182617,2.128418c1.664063,1.863647 5.03418,7.445068 4.655029,8.357666c-0.502686,1.644043 -4.736816,-7.671753 -7.837646,-10.486084zm28.590332,4.063965c-3.614258,6.716309 -3.95459,7.219482 -6.773438,7.12207c0.598633,-1.23938 2.317383,-2.248657 3.523438,-3.42627c1.285156,-1.255371 1.983887,-3.602905 3.25,-3.695801zm-12.70459,0.244873c4.11377,4.388306 4.553223,5.96875 3.860352,6.462891c-1.26709,0.477051 -0.990479,-0.767944 -3.860352,-6.462891zm-7.696045,0.94104c1.012695,-0.168335 1.750488,1.351563 2.153076,2.594727c1.027832,3.174316 1.039551,2.716187 0.34668,2.985229c-0.955322,0.37085 -0.949219,-2.868042 -2.499756,-5.579956zm-6.811768,-0.291504c1.059814,0.031006 1.611328,1.316895 2.354492,2.503784c0.746582,2.263184 2.919434,3.669067 1.386963,3.755005c-1.523682,0.085571 -2.577881,-3.57251 -3.741455,-6.258789zm11.36084,0.870605c3.342773,3.63916 4.057861,4.755371 2.715332,4.90564c-0.865723,0.096802 -0.934082,-0.792358 -1.922363,-2.287598c-0.636719,-0.963013 -1.430176,-1.806885 -0.792969,-2.618042z"/>
  </g>
 </g>
</svg>