<?xml version="1.0" standalone="no"?>
<!DOCTYPE svg PUBLIC "-//W3C//DTD SVG 20010904//EN"
 "http://www.w3.org/TR/2001/REC-SVG-20010904/DTD/svg10.dtd">
<svg version="1.0" xmlns="http://www.w3.org/2000/svg"
 width="512.000000pt" height="512.000000pt" viewBox="0 0 512.000000 512.000000"
 preserveAspectRatio="xMidYMid meet">
<metadata>
Created by potrace 1.11, written by Peter Selinger 2001-2013
</metadata>
<g transform="translate(0.000000,512.000000) scale(0.100000,-0.100000)"
fill="#000000" stroke="none">
<path d="M793 4761 c-221 -63 -388 -235 -437 -449 -31 -136 -3 -313 69 -436
165 -282 539 -375 821 -205 149 91 251 239 279 409 34 204 -21 377 -170 525
-111 112 -237 165 -400 170 -73 3 -117 -1 -162 -14z m250 -168 c157 -40 273
-160 310 -319 69 -303 -204 -576 -507 -506 -316 72 -440 452 -227 694 66 74
152 123 241 134 19 3 37 7 39 10 9 8 92 1 144 -13z"/>
<path d="M3209 4775 c-2 -2 -27 -6 -56 -9 -28 -3 -73 -10 -100 -16 -66 -15
-253 -79 -280 -97 -12 -8 -28 -11 -35 -7 -7 4 -10 4 -6 -1 4 -4 -22 -25 -59
-47 -210 -122 -391 -322 -501 -552 -180 -375 -159 -844 54 -1199 115 -190 316
-384 494 -475 127 -65 298 -123 410 -140 61 -9 323 -9 386 0 263 38 541 181
729 374 142 146 255 339 310 531 41 141 49 194 49 353 2 286 -69 514 -230 745
-186 266 -487 460 -809 522 -70 13 -347 28 -356 18z m306 -184 c342 -65 622
-265 784 -559 91 -166 135 -340 135 -532 -1 -224 -43 -375 -163 -580 -66 -112
-216 -269 -326 -341 -502 -330 -1155 -214 -1510 266 -145 196 -214 410 -213
664 0 182 38 334 124 501 74 144 155 241 308 368 87 73 258 159 373 187 171
43 352 52 488 26z"/>
<path d="M3180 4425 c-123 -18 -319 -96 -382 -152 -9 -8 -22 -12 -28 -8 -6 3
-9 2 -8 -3 2 -6 -20 -30 -47 -54 -102 -87 -168 -174 -228 -298 -56 -115 -86
-225 -94 -347 l-6 -92 31 -31 c26 -25 37 -30 64 -25 55 9 78 47 82 135 8 175
81 341 210 478 129 137 320 226 510 236 97 6 126 26 126 91 0 78 -56 95 -230
70z"/>
<path d="M1860 3031 c-159 -51 -271 -120 -386 -235 -130 -130 -210 -270 -253
-446 -77 -313 23 -662 255 -886 24 -23 41 -44 38 -48 -2 -3 -1 -4 2 -2 3 3 34
-16 68 -40 110 -81 264 -145 411 -170 49 -8 202 -8 268 0 249 30 498 187 646
405 85 125 134 256 155 413 l6 47 -42 11 c-24 6 -59 15 -78 21 -19 5 -38 9
-42 9 -3 0 -9 -24 -13 -52 -18 -140 -74 -287 -147 -381 -114 -149 -281 -257
-451 -294 -82 -17 -242 -19 -313 -3 -162 36 -272 97 -395 219 -108 108 -161
201 -200 354 -69 263 28 573 232 749 92 79 236 155 329 173 39 7 61 17 58 23
-2 4 -16 40 -32 80 -32 80 -33 80 -116 53z"/>
<path d="M2030 2719 c-19 -5 -44 -10 -55 -13 -84 -18 -199 -87 -276 -167 -90
-93 -144 -214 -162 -364 -13 -100 70 -161 138 -102 22 19 28 35 35 92 24 218
175 371 385 391 33 4 71 13 83 21 24 15 24 15 4 36 -10 12 -33 43 -51 70 -33
49 -40 51 -101 36z"/>
<path d="M3406 1533 c-2 -2 -16 -6 -32 -9 -41 -7 -154 -54 -186 -75 -14 -11
-30 -19 -34 -19 -4 0 -39 -33 -78 -73 -186 -190 -226 -466 -103 -702 48 -90
165 -204 257 -249 284 -139 627 -38 781 229 60 104 83 186 82 300 0 85 -6 123
-29 195 -77 236 -295 395 -552 404 -56 2 -103 1 -106 -1z m194 -182 c181 -38
331 -231 325 -416 -10 -276 -250 -466 -518 -410 -132 28 -251 127 -303 255
-36 86 -38 214 -5 304 26 74 85 153 148 199 47 34 166 82 181 73 5 -3 13 -1
20 3 16 10 86 6 152 -8z"/>
</g>
</svg>
